<svg xmlns="http://www.w3.org/2000/svg" width="15.494" height="13.817" viewBox="0 0 15.494 13.817">
  <g id="Group_149" data-name="Group 149" transform="translate(-10.798 -967.404)">
    <path id="Path_156" data-name="Path 156" d="M12.012,980.007a4.154,4.154,0,0,0,5.869,0l7.546-7.546a2.964,2.964,0,0,0-4.192-4.192l-7.546,7.546A1.779,1.779,0,1,0,16.2,978.33l6.428-6.428a.593.593,0,1,0-.838-.838l-6.428,6.428a.593.593,0,0,1-.838-.838l7.546-7.546a1.779,1.779,0,1,1,2.515,2.515l-7.546,7.546a2.964,2.964,0,1,1-4.192-4.192l6.428-6.428a.593.593,0,1,0-.838-.838l-6.428,6.428a4.154,4.154,0,0,0,0,5.869Z" transform="translate(0 0)" fill="#3c3c59"/>
  </g>
</svg>
