<svg xmlns="http://www.w3.org/2000/svg" width="13.213" height="12" viewBox="0 0 13.213 12">
  <path id="Path_121" data-name="Path 121" d="M-4104.621-24a5.353,5.353,0,0,1,1.477-.194s.224-.037.426.389,1.121,2.549,1.121,2.549a1.029,1.029,0,0,1-.3,1.024c-.486.478-.718.673-.718.673s-.2.179.067.62a8.322,8.322,0,0,0,4.389,3.8c.2.074.416.146.584-.058l1.127-1.363a.506.506,0,0,1,.6-.169c.338.169,2.653,1.29,2.653,1.29a.483.483,0,0,1,.277.5,2.727,2.727,0,0,1-1.8,2.55c-1.688.615-3.949-.44-3.949-.44a15.2,15.2,0,0,1-6.994-6.733A3.22,3.22,0,0,1-4104.621-24Z" transform="translate(4106.129 24.194)" fill="#3c3c59"/>
</svg>
