<svg xmlns="http://www.w3.org/2000/svg" width="11.134" height="12.067" viewBox="0 0 11.134 12.067">
  <g id="Group_153" data-name="Group 153" transform="translate(-2096.433 -285)">
    <path id="Path_125" data-name="Path 125" d="M2.651,0A2.651,2.651,0,0,1,5.3,2.651c0,1.464-1.187,3.408-2.651,3.408S0,4.114,0,2.651A2.651,2.651,0,0,1,2.651,0Z" transform="translate(2101.836 286.929)" fill="#3c3c59"/>
    <path id="Path_126" data-name="Path 126" d="M3.08,1c1.7,0,3.08.622,3.08,2.323H0C0,1.622,1.379,1,3.08,1Z" transform="translate(2101.407 292.744)" fill="#3c3c59"/>
    <path id="Path_124" data-name="Path 124" d="M4.067,1c2.246,0,4.067.821,4.067,3.067H0C0,1.821,1.821,1,4.067,1Z" transform="translate(2096.433 293)" fill="#3c3c59"/>
    <path id="Path_123" data-name="Path 123" d="M3.5,0A3.5,3.5,0,0,1,7,3.5C7,5.433,5.433,8,3.5,8S0,5.433,0,3.5A3.5,3.5,0,0,1,3.5,0Z" transform="translate(2097 285)" fill="#3c3c59"/>
  </g>
</svg>
