<svg xmlns="http://www.w3.org/2000/svg" width="17" height="17" viewBox="0 0 17 17">
  <g id="Group_150" data-name="Group 150" transform="translate(4753.5 2174)">
    <path id="Path_157" data-name="Path 157" d="M16.01,2.5H5.989A3.483,3.483,0,0,0,2.5,5.989V16.01A3.494,3.494,0,0,0,5.989,19.5H16.01A3.494,3.494,0,0,0,19.5,16.01V5.989A3.483,3.483,0,0,0,16.01,2.5Zm2.165,13.51a2.161,2.161,0,0,1-2.165,2.165H5.989A2.161,2.161,0,0,1,3.824,16.01V5.989A2.161,2.161,0,0,1,5.989,3.824H16.01a2.161,2.161,0,0,1,2.165,2.165Z" transform="translate(-4756 -2176.5)" fill="#3c3c59"/>
    <path id="Path_158" data-name="Path 158" d="M36.805,58.595a.659.659,0,0,0-.877.3,2.592,2.592,0,0,1-4.653,0,.656.656,0,1,0-1.181.573,3.909,3.909,0,0,0,7.015,0A.659.659,0,0,0,36.805,58.595Z" transform="translate(-4778.603 -2222.502)" fill="#3c3c59"/>
    <circle id="Ellipse_101" data-name="Ellipse 101" cx="1.181" cy="1.181" r="1.181" transform="translate(-4749.116 -2168.829)" fill="#3c3c59"/>
    <circle id="Ellipse_102" data-name="Ellipse 102" cx="1.181" cy="1.181" r="1.181" transform="translate(-4743.246 -2168.829)" fill="#3c3c59"/>
  </g>
</svg>
